<svg xmlns="http://www.w3.org/2000/svg" width="24" height="24" viewBox="0 0 24 24" fill="none" stroke="currentColor" stroke-width="2" stroke-linecap="round" stroke-linejoin="round">
  <path d="M12 2a4 4 0 0 1 4 4c0 .5-.1 1-.2 1.4A4 4 0 0 1 19 11a4 4 0 0 1-2 3.46V16a2 2 0 0 1-2 2H9a2 2 0 0 1-2-2v-1.54A4 4 0 0 1 5 11a4 4 0 0 1 3.2-3.6A4 4 0 0 1 8 6a4 4 0 0 1 4-4z"/>
  <line x1="9" y1="18" x2="9" y2="21"/>
  <line x1="15" y1="18" x2="15" y2="21"/>
  <line x1="9" y1="21" x2="15" y2="21"/>
  <circle cx="10" cy="10" r="1" fill="currentColor" stroke="none"/>
  <circle cx="14" cy="10" r="1" fill="currentColor" stroke="none"/>
</svg>
